<svg width="28" height="28" viewBox="0 0 28 28" fill="none" xmlns="http://www.w3.org/2000/svg">
<mask id="mask0_25_7016" style="mask-type:luminance" maskUnits="userSpaceOnUse" x="0" y="0" width="28" height="28">
<path d="M0 1.90735e-06H28V28H0V1.90735e-06Z" fill="white"/>
</mask>
<g mask="url(#mask0_25_7016)">
<path d="M24.7552 5.39583C24.7552 7.77178 22.8291 9.69788 20.4531 9.69788C18.0771 9.69788 16.151 7.77178 16.151 5.39583C16.151 3.01988 18.0771 1.09373 20.4531 1.09373C22.8291 1.09373 24.7552 3.01988 24.7552 5.39583Z" stroke="white" stroke-width="2" stroke-miterlimit="10" stroke-linecap="round" stroke-linejoin="round"/>
<path d="M16.8624 10.7885C17.889 10.0997 19.1242 9.69792 20.4533 9.69792C24.0171 9.69792 26.9062 12.587 26.9062 16.1508V18.3021H1.09393" stroke="white" stroke-width="2" stroke-miterlimit="10" stroke-linecap="round" stroke-linejoin="round"/>
<path d="M11.8487 5.39583C11.8487 7.77178 9.92257 9.69788 7.54661 9.69788C5.17066 9.69788 3.24457 7.77178 3.24457 5.39583C3.24457 3.01988 5.17066 1.09373 7.54661 1.09373C9.92257 1.09373 11.8487 3.01988 11.8487 5.39583Z" stroke="white" stroke-width="2" stroke-miterlimit="10" stroke-linecap="round" stroke-linejoin="round"/>
<path d="M1.09393 18.3021V16.1508C1.09393 12.587 3.98302 9.69792 7.54684 9.69792C8.87591 9.69792 10.1111 10.0998 11.1376 10.7884" stroke="white" stroke-width="2" stroke-miterlimit="10" stroke-linecap="round" stroke-linejoin="round"/>
<path d="M18.3022 14C18.3022 16.376 16.3761 18.3021 14.0002 18.3021C11.6242 18.3021 9.69806 16.376 9.69806 14C9.69806 11.6241 11.6242 9.69792 14.0002 9.69792C16.3761 9.69792 18.3022 11.6241 18.3022 14Z" stroke="white" stroke-width="2" stroke-miterlimit="10" stroke-linecap="round" stroke-linejoin="round"/>
<path d="M20.4533 26.9062V24.755C20.4533 21.1911 17.5642 18.3021 14.0004 18.3021C10.4366 18.3021 7.54742 21.1911 7.54742 24.755V26.9062H20.4533Z" stroke="white" stroke-width="2" stroke-miterlimit="10" stroke-linecap="round" stroke-linejoin="round"/>
</g>
</svg>
